#!OML:ASF E:\pregnant2\Project 1\Capture day 1\Session 1\pregnant2.ASF
:FULLY-SPECIFIED
:DEGREES
1106
root 5.84979 19.3938 -3.13215 28.1549 -2.55302 2.88821
lowerback -8.49537 -2.44086 -7.65634
upperback -13.1344 -3.0723 0.986299
thorax -8.89436 -0.789153 5.29705
lowerneck -9.07618 -0.862278 -5.47231
upperneck 51.9346 1.17972 -1.90239
head 24.4743 -1.01525 0.172273
rclavicle 1.35915e-014 -2.38914e-014
rhumerus -55.5263 10.3743 -75.8538
rradius 46.6315
rwrist 4.43253
rhand -14.9244 -14.5765
rfingers 7.12502
rthumb 11.2377 -44.2555
lclavicle 1.35915e-014 -2.38914e-014
lhumerus -54.0062 3.19011 79.4055
lradius 40.8672
lwrist 1.47447
lhand -12.6925 27.3519
lfingers 7.12502
lthumb 13.3896 56.9016
rfemur -39.9119 4.03391 20.5561
rtibia 43.8013
rfoot -26.6224 -11.8132
rtoes 2.1895
lfemur -49.4032 -9.65556 -24.2413
ltibia 35.4491
lfoot -8.64453 15.057
ltoes -15.9296
1107
root 5.8664 19.3846 -3.06776 28.1337 -2.50154 3.05291
lowerback -8.46412 -2.49482 -7.86227
upperback -13.1458 -3.14481 0.955257
thorax -8.9132 -0.806844 5.37868
lowerneck -8.95051 -0.976414 -5.6694
upperneck 51.8401 0.928783 -1.70684
head 24.3133 -1.12448 0.275654
rclavicle -3.29587e-015 3.38555e-015
rhumerus -55.6275 9.52698 -75.4925
rradius 46.2494
rwrist 4.18393
rhand -15.3003 -15.2477
rfingers 7.12502
rthumb 10.8752 -44.9461
lclavicle -3.29587e-015 3.38555e-015
lhumerus -53.6155 3.38296 79.3688
lradius 40.2312
lwrist 1.02953
lhand -12.6328 27.1811
lfingers 7.12502
lthumb 13.4471 56.727
rfemur -40.4334 3.14125 20.6803
rtibia 45.259
rfoot -26.1391 -11.4487
rtoes 0.496803
lfemur -49.1272 -9.11044 -24.9192
ltibia 35.4993
lfoot -9.20078 14.4849
ltoes -15.6418
1108
root 5.88849 19.3847 -3.00286 28.1301 -2.51925 3.07986
lowerback -8.52431 -2.48897 -7.88048
upperback -13.0847 -3.12954 0.92482
thorax -8.81121 -0.805747 5.35151
lowerneck -9.11756 -1.06438 -5.66306
upperneck 51.8267 0.757913 -1.64799
head 24.3789 -1.18067 0.272002
rclavicle -1.76654e-017 1.35018e-014
rhumerus -55.7609 8.85097 -75.3005
rradius 46.0859
rwrist 3.5558
rhand -15.7407 -15.6892
rfingers 7.12502
rthumb 10.4503 -45.4094
lclavicle -1.76654e-017 1.35018e-014
lhumerus -52.9568 3.57905 79.349
lradius 39.4295
lwrist 0.581675
lhand -12.6093 27.2233
lfingers 7.12502
lthumb 13.4697 56.7678
rfemur -41.0408 2.16086 20.9392
rtibia 46.7086
rfoot -25.4169 -10.8493
rtoes -0.612898
lfemur -48.8245 -8.51483 -25.4683
ltibia 35.4708
lfoot -9.91326 14.0031
ltoes -14.532
1109
root 5.91474 19.3905 -2.93828 28.132 -2.60201 3.02762
lowerback -8.57334 -2.4443 -7.7719
upperback -13.0886 -3.06935 0.905931
thorax -8.79926 -0.787263 5.26983
lowerneck -9.08881 -1.13999 -5.72146
upperneck 51.8072 0.610238 -1.59021
head 24.3492 -1.24078 0.286301
rclavicle 2.11113e-014 5.5815e-015
rhumerus -55.9297 8.20303 -75.0996
rradius 45.7773
rwrist 3.1746
rhand -15.9014 -16.5145
rfingers 7.12502
rthumb 10.2952 -46.2425
lclavicle 2.11113e-014 5.5815e-015
lhumerus -52.465 3.88428 79.2683
lradius 38.728
lwrist -0.0117019
lhand -12.5213 27.3552
lfingers 7.12502
lthumb 13.5546 56.894
rfemur -41.6769 1.23644 21.2259
rtibia 48.1666
rfoot -24.4741 -10.1914
rtoes -1.82278
lfemur -48.4588 -7.84427 -25.9686
ltibia 35.3098
lfoot -10.8002 13.5091
ltoes -12.6061
1110
root 5.94415 19.3991 -2.87427 28.0682 -2.67184 2.93096
lowerback -8.55774 -2.37975 -7.60599
upperback -13.0097 -2.98492 0.902274
thorax -8.73142 -0.765585 5.17344
lowerneck -9.18157 -1.2531 -5.82239
upperneck 51.7557 0.424546 -1.5327
head 24.3427 -1.32311 0.300822
rclavicle -1.91536e-014 6.6158e-015
rhumerus -55.9577 7.67363 -74.9887
rradius 45.3404
rwrist 2.7129
rhand -16.4201 -17.2168
rfingers 7.12502
rthumb 9.79484 -46.969
lclavicle -1.91536e-014 6.6158e-015
lhumerus -51.8703 4.18803 79.2508
lradius 38.0866
lwrist -0.509887
lhand -12.4107 27.6207
lfingers 7.12502
lthumb 13.6612 57.1524
rfemur -42.2873 0.274873 21.5554
rtibia 49.6759
rfoot -23.4437 -9.50128
rtoes -1.77018
lfemur -47.9937 -7.61033 -26.1461
ltibia 35.1291
lfoot -11.5002 13.4235
ltoes -11.1493
1111
root 5.97738 19.4128 -2.81147 28.0804 -2.87369 2.81101
lowerback -8.65896 -2.286 -7.38841
upperback -12.9796 -2.85614 0.885524
thorax -8.66108 -0.726124 5.03176
lowerneck -9.11372 -1.31504 -5.90423
upperneck 51.6912 0.307528 -1.48368
head 24.2452 -1.37617 0.322481
rclavicle 4.49634e-015 2.32019e-014
rhumerus -56.1023 7.33797 -74.9985
rradius 45.0281
rwrist 2.31315
rhand -17.0341 -17.0695
rfingers 7.12502
rthumb 9.20243 -46.8487
lclavicle 4.49634e-015 2.32019e-014
lhumerus -51.2439 4.6682 79.1197
lradius 37.2939
lwrist -1.12679
lhand -12.316 27.8505
lfingers 7.12502
lthumb 13.7524 57.376
rfemur -43.1242 -0.485865 21.7544
rtibia 51.2784
rfoot -21.8009 -8.72006
rtoes -3.23538
lfemur -47.6447 -7.8459 -26.0286
ltibia 34.9457
lfoot -11.8282 13.9263
ltoes -10.66
1112
root 6.01208 19.4179 -2.75088 28.0816 -3.07458 2.69612
lowerback -8.67552 -2.19137 -7.14412
upperback -12.9833 -2.73609 0.874549
thorax -8.67608 -0.68845 4.8858
lowerneck -9.19532 -1.35118 -5.89444
upperneck 51.7625 0.276232 -1.54079
head 24.3661 -1.39538 0.277362
rclavicle 1.31831e-014 1.95057e-015
rhumerus -56.2158 7.06415 -75.0013
rradius 44.6068
rwrist 2.19396
rhand -16.6903 -17.7309
rfingers 7.12502
rthumb 9.53421 -47.4952
lclavicle 1.31831e-014 1.95057e-015
lhumerus -50.9008 4.99758 79.1241
lradius 36.9828
lwrist -1.48749
lhand -12.2189 28.0295
lfingers 7.12502
lthumb 13.8461 57.5486
rfemur -44.0129 -1.13994 21.9051
rtibia 52.9983
rfoot -19.9643 -8.02719
rtoes -4.86058
lfemur -47.3187 -8.39765 -25.7484
ltibia 34.7838
lfoot -11.8541 14.7374
ltoes -10.8953
1113
root 6.0453 19.4186 -2.69091 28.0731 -3.2867 2.62137
lowerback -8.67633 -2.11094 -6.9907
upperback -12.965 -2.63263 0.869831
thorax -8.67056 -0.65185 4.79692
lowerneck -9.19637 -1.39078 -5.94362
upperneck 51.702 0.213687 -1.53243
head 24.3022 -1.42661 0.279816
rclavicle 1.80483e-014 8.56016e-015
rhumerus -56.3375 6.92436 -75.0827
rradius 44.2711
rwrist 2.13111
rhand -16.356 -17.3188
rfingers 7.12502
rthumb 9.85673 -47.0681
lclavicle 1.80483e-014 8.56016e-015
lhumerus -50.3218 5.48398 79.0614
lradius 36.3469
lwrist -1.88602
lhand -12.3036 28.2791
lfingers 7.12502
lthumb 13.7645 57.8038
rfemur -44.9951 -1.7237 21.9691
rtibia 54.8424
rfoot -17.9347 -7.34029
rtoes -6.15097
lfemur -47.0027 -8.93886 -25.5236
ltibia 34.6383
lfoot -11.6656 15.4977
ltoes -11.5688
1114
root 6.07582 19.4185 -2.63132 28.0403 -3.52582 2.59313
lowerback -8.69623 -2.04361 -6.88602
upperback -12.9262 -2.54437 0.84535
thorax -8.62834 -0.621634 4.71236
lowerneck -9.09765 -1.43292 -6.04518
upperneck 51.5914 0.149266 -1.51746
head 24.1394 -1.46728 0.297922
rclavicle 1.14216e-014 1.76421e-015
rhumerus -56.3861 6.85248 -75.2434
rradius 43.8285
rwrist 2.22948
rhand -16.3736 -17.3985
rfingers 7.12502
rthumb 9.83971 -47.1486
lclavicle 1.14216e-014 1.76421e-015
lhumerus -49.9393 5.89133 79.0419
lradius 36.1014
lwrist -2.07463
lhand -12.3101 28.4883
lfingers 7.12502
lthumb 13.7581 58.0135
rfemur -46.0702 -2.21611 21.9353
rtibia 56.759
rfoot -15.5891 -6.73741
rtoes -7.41918
lfemur -46.6771 -9.45604 -25.3726
ltibia 34.5308
lfoot -11.4682 16.2455
ltoes -12.3784
1115
root 6.10265 19.4178 -2.57154 28.0447 -3.75436 2.62277
lowerback -8.73345 -1.99998 -6.91121
upperback -12.8885 -2.48248 0.826488
thorax -8.5726 -0.592944 4.70534
lowerneck -9.26088 -1.45844 -5.97228
upperneck 51.5981 0.13724 -1.60662
head 24.221 -1.4682 0.226865
rclavicle -3.93842e-015 -2.90723e-015
rhumerus -56.4349 6.89709 -75.4534
rradius 43.4397
rwrist 2.37799
rhand -16.1127 -16.988
rfingers 7.12502
rthumb 10.0914 -46.726
lclavicle -3.93842e-015 -2.90723e-015
lhumerus -49.3892 6.19738 79.1173
lradius 35.7424
lwrist -2.14276
lhand -12.4051 28.7521
lfingers 7.12502
lthumb 13.6666 58.2834
rfemur -47.26 -2.66679 21.8452
rtibia 58.7082
rfoot -12.9869 -6.31297
rtoes -9.03008
lfemur -46.3846 -9.86094 -25.3463
ltibia 34.4125
lfoot -11.2297 16.8599
ltoes -13.2052
1116
root 6.12484 19.4132 -2.5128 28.0387 -3.98482 2.72205
lowerback -8.77727 -1.9836 -7.03115
upperback -12.8454 -2.455 0.785161
thorax -8.5025 -0.575037 4.72605
lowerneck -9.31568 -1.48017 -5.95069
upperneck 51.542 0.0859981 -1.59916
head 24.1841 -1.48171 0.216562
rclavicle -1.16786e-014 -9.29318e-015
rhumerus -56.5204 7.02614 -75.7703
rradius 43.0925
rwrist 2.68676
rhand -15.5709 -16.364
rfingers 7.12502
rthumb 10.6141 -46.076
lclavicle -1.16786e-014 -9.29318e-015
lhumerus -49.0508 6.53543 79.1651
lradius 35.6949
lwrist -2.18086
lhand -12.4715 29.0966
lfingers 7.12502
lthumb 13.6026 58.6322
rfemur -48.4227 -3.01146 21.6388
rtibia 60.6204
rfoot -10.4283 -5.90377
rtoes -9.50851
lfemur -46.0758 -10.118 -25.4748
ltibia 34.2732
lfoot -11.0526 17.2811
ltoes -14.0423
